<?xml version="1.0" encoding="utf-8"?>
<!-- Generator: Adobe Illustrator 21.0.0, SVG Export Plug-In . SVG Version: 6.00 Build 0)  -->
<svg version="1.1" id="Nintendo_Switch" xmlns="http://www.w3.org/2000/svg" xmlns:xlink="http://www.w3.org/1999/xlink" x="0px"
	 y="0px" width="500px" height="105.1px" viewBox="0 0 500 105.1" style="enable-background:new 0 0 500 105.1;"
	 xml:space="preserve">
<style type="text/css">
	.st0{fill:#DD0E0E;}
</style>
<path class="st0" d="M16.3,31.6c0,5.5,4.4,9.9,9.9,9.9s9.9-4.4,9.9-9.9s-4.4-9.9-9.9-9.9l0,0C20.8,21.6,16.3,26,16.3,31.6L16.3,31.6
	z M42.2,96.7H26.9c-4.9,0-9.7-2-13-5.3c-3.5-3.5-5.5-8.2-5.5-13V26.9c0-4.9,2-9.5,5.3-13c3.5-3.5,8.2-5.5,13-5.5h15.2v88.3
	C41.9,96.7,42.2,96.7,42.2,96.7z M49.9,0h-23C12.1,0,0,12.1,0,26.9v51.2C0,92.9,12.1,105,26.9,105h23c0.4,0,0.7-0.4,0.7-0.7l0,0V0.7
	C50.8,0.4,50.3,0,49.9,0L49.9,0z M81.9,47.2c6,0.2,10.6,5.1,10.4,10.8s-4.6,10.4-10.4,10.4c-6-0.2-10.6-5.1-10.4-10.8
	S76.2,47.2,81.9,47.2z M62,105.1h16.1c14.8,0,26.9-12.1,26.9-26.9V26.9C105.1,12.1,92.9,0,78.1,0H61.8c-0.4,0-0.7,0.2-0.7,0.7l0,0
	v103.5C61.1,104.6,61.6,105.1,62,105.1L62,105.1z M414.1,25.4h-6.4v-17h6.4c4.6,0,8.4,3.8,8.4,8.6C422.7,21.6,418.8,25.4,414.1,25.4
	z M413.9,2.2h-12.1v29.4h12.1c8.4,0,15-6.6,15-14.6C428.9,8.8,422.3,2.2,413.9,2.2L413.9,2.2z M391.4,57c6.2,0,12.1,3.3,15.2,8.6
	l9.1-7.7c-5.5-8.2-14.6-13-24.5-13c-16.3,0-29.6,13.2-29.6,29.6s13.2,29.6,29.6,29.6c9.9,0,19-4.9,24.5-13l-9.1-7.7
	c-3.1,5.3-8.8,8.6-15.2,8.6c-9.7,0-17.4-7.7-17.4-17.2C374,64.7,381.7,57,391.4,57L391.4,57z M306.2,58.3h17.7v43.5h11.9V58.3H353
	V46.6h-46.8V58.3L306.2,58.3z M465.6,68.4h-25.8V46.6h-11.5v55.2h11.5V79.7h25.8v22.1H477V46.6h-11.5
	C465.6,46.6,465.6,68.4,465.6,68.4z M497.4,93.6l-2,6l-2-6h-2.2v8.2h1.5v-6.4l2.2,6.2l0,0h1.3l0,0l2.2-6.2v6.4h1.5v-8.2H497.4
	L497.4,93.6z M463.6,26c-5.1,0-9.1-4.2-9.1-9.1c0-5.1,4.2-9.1,9.1-9.1c5.1,0,9.1,4.2,9.1,9.1S468.4,26,463.6,26z M463.6,1.3
	c-8.6,0-15.7,7.1-15.7,15.7s7.1,15.7,15.7,15.7s15.7-7.1,15.7-15.7C479,8.4,472.2,1.3,463.6,1.3L463.6,1.3z M482.3,95.1h2.4v6.6h1.5
	v-6.6h2.4v-1.5H482L482.3,95.1L482.3,95.1z M326.5,26h-16.8v-6.8h15.7v-5.3h-15.7V7.7h16.8V2.2h-22.7v29.4h22.7V26L326.5,26z
	 M377,31.6V2.2h-6v19.2L356.5,2.2h-6v29.4h6V11.9l14.6,19.6L377,31.6L377,31.6z M181.7,31.6h6.6V2.2h-6.6V31.6L181.7,31.6z
	 M156.1,68.2c-7.9-1.3-13-2.9-13-6.6c0-4.2,5.7-6,13.5-6c7.1,0,14.3,2.6,17,3.8l4-9.5c-2.9-1.1-11.7-4.2-21.4-4.2
	c-11.9,0-24.7,5.7-24.7,16.6c0,8.8,6.2,13.2,22.1,15.9c11.3,2,17.2,2.9,17.2,7.7c0,2.6-2.2,7.1-14.8,7.1c-10.2,0-17.2-3.8-19.6-5.1
	l-5.3,9.5c2.9,1.5,12.1,6,24.3,6c17.7,0,26.9-6.2,26.9-17.7C181.9,79,179.5,72.2,156.1,68.2L156.1,68.2z M243.9,86.8l-11.7-40.2
	h-9.7l-11.7,40l-10.6-40h-11.9l15.7,55.2h13.2l10.4-36.4l10.2,36.4H251l15.7-55.2h-11.9L243.9,86.8L243.9,86.8z M216.1,11.9
	l14.6,19.6h5.7V2.2h-6v19.2L216.1,2.2h-6v29.4h6V11.9z M280.4,101.8h12.4V46.6h-12.4V101.8z M282.1,2.2h-24.7v6.2h9.3v23.2h6.4V8.4
	h9.1L282.1,2.2L282.1,2.2z M139.1,11.9l14.6,19.6h5.7V2.2h-6v19.2L139.1,2.2h-6v29.4h6V11.9L139.1,11.9z"/>
</svg>
