<?xml version="1.0" encoding="UTF-8"?>
<svg id="svg1" width="1920" height="1080" version="1.1" viewBox="0 0 1920 1080" xmlns="http://www.w3.org/2000/svg" xmlns:xlink="http://www.w3.org/1999/xlink">
 <defs id="defs4">
  <filter id="blackShadow" x="-.12788" y="-.37307" width="1.2824" height="1.8239" color-interpolation-filters="sRGB">
   <feFlood id="feFlood5" flood-color="rgb(0,0,0)" flood-opacity=".8" in="SourceGraphic" result="flood"/>
   <feGaussianBlur id="feGaussianBlur5" in="SourceGraphic" result="blur" stdDeviation="4.000000"/>
   <feOffset id="feOffset5" dx="2.000000" dy="2.000000" in="blur" result="offset"/>
   <feComposite id="feComposite5" in="flood" in2="offset" operator="in" result="comp1"/>
   <feComposite id="feComposite6" in="SourceGraphic" in2="comp1" result="comp2"/>
  </filter>
  <radialGradient id="tvGlow">
   <stop id="stop1" stop-color="rgba(0, 173, 255, 0.8)" offset="0"/>
   <stop id="stop2" stop-color="rgba(0, 173, 255, 0.4)" stop-opacity=".6" offset=".7"/>
   <stop id="stop3" stop-color="rgba(0, 173, 255, 0)" stop-opacity="0" offset="1"/>
  </radialGradient>
  <filter id="tvGlowFilter" x="-.24081" y="-.17092" width="1.4821" height="1.342">
   <feGaussianBlur id="feGaussianBlur3" result="coloredBlur" stdDeviation="8"/>
   <feMerge id="feMerge4">
    <feMergeNode id="feMergeNode3" in="coloredBlur"/>
    <feMergeNode id="feMergeNode4" in="SourceGraphic"/>
   </feMerge>
  </filter>
 </defs>
 <style id="style4">.sensor-text {
    font-family: sans-serif;
    fill: #00adff;
    filter: url(#blackShadow);
  }</style>
 <g id="background">
  <image id="main-background" width="1920" height="1080" href="/local/floorplan/kasinot.png" preserveAspectRatio="none" xlink:href="/local/floorplan/kasinot.png"/>
  <g id="light-overlays">
   <image id="light_overlay.living_room" width="1920" height="1080" display="none" href="/local/floorplan/living_room.png" preserveAspectRatio="none" xlink:href="/local/floorplan/living_room.png"/>
  </g>
 </g>
 <g id="areas">
  <g id="area.balcony">
   <path id="path_balcony" d="m1379.2 108.35 80.729-51.624 44.401 1.2747s16.996-11.684 35.053 2.9742l68.62 9.1351s32.59-8.9234 36.116 8.7102c0.2124 1.0622 44.188 19.12 44.188 19.12s30.167-3.824 30.167 12.109c0 1.912 41.002 21.882 41.002 21.882l-36.116 179.09-68.195 72.019-14.659-5.0987 4.8862-24.431-85.19-28.68-6.5857 6.3733-3.3992 14.659-187.8-63.521z" fill="none" stroke="#000" stroke-width="1px"/>
   <use id="group.balcony" xlink:href="#path_balcony"/>
   <text id="sensor.balcony_sensor_temperature" class="sensor-text" transform="matrix(.7636 -.64757 -.21982 1.2671 377.81 -182.51)" x="1632.4174" y="1161.7399" font-size="34px" stroke-width=".32634">00.00°C</text>
   <text id="sensor.balcony_sensor_humidity" class="sensor-text" transform="matrix(.7636 -.64757 -.21982 1.2671 378.79 -159.53)" x="1632.3397" y="1179.4536" font-size="34px" stroke-width=".32634">00.00%</text>
  </g>
  <g id="area.tv_ambient" transform="translate(-485.9 219.22)">
   <path id="path_tv_ambient" transform="translate(485.9 -219.22)" d="m1069.5 307.37 306.14-198.38-16.328 185.73 13.47 5.7147-3.2655 37.145-78.781 59.596-20.818-9.3884-0.8163 26.532-136.74 111.03-37.145-18.369-30.206 24.9z" fill="none" stroke="#000" stroke-width="1px"/>
   <use id="group.tv_ambient" xlink:href="#path_tv_ambient"/>
  </g>
  <g id="area.living_room">
   <path id="path_living_room" d="m1373.2 300.59-13.943-5.5189 0.6842-12.835 191.27 63.807 2.3345-15.241 6.8-5.2 84.8 28-3.6 24.8 13.739 4.4492-139.21 153.24-253.73-116.09 5.6-6 6-61.6-3.4886 37.011 20.69 8.0085 78.122-58.616z" fill="none" stroke="#000" stroke-width="1px"/>
   <use id="group.living_room" xlink:href="#path_living_room"/>
  </g>
  <g id="area.dining">
   <path id="path_dining" d="m1262.8 419.74 253.69 116.31-198.75 211.79-302.8-154.05 0.6357-27.461 81.304-59.478 35.83 19.148z" fill="none" stroke="#000" stroke-width="1px"/>
   <use id="group.dining" xlink:href="#path_dining"/>
  </g>
  <g id="area.bedroom">
   <path id="path_bedroom" d="m1066.2 1018.2 251.97-271.26-303.66-154.57 2.0621-164.97-50.006-24.23-78.361 53.615 7.2174 182.5-20.621 17.012 1.5466 21.137-5.6708 2.0621-7.2174-142.8-48.975-26.808-84.547 56.193 16.497 187.14-43.323 31.941z" fill="none" stroke="#000" stroke-width="1px"/>
   <use id="group.bedroom" xlink:href="#path_bedroom"/>
   <text id="sensor.netatmo_airq_temperature" class="sensor-text" transform="matrix(.89906 .55932 -.7614 .6386 -3.4636 -.28864)" x="1271.0234" y="225.47473" font-size="34px" stroke-width=".5">00.00°</text>
   <text id="sensor.netatmo_airq_humidity" class="sensor-text" transform="matrix(.89906 .55932 -.7614 .6386 -9.2363 5.1954)" x="1272.2444" y="249.95264" font-size="34px" stroke-width=".5">00%</text>
   <text id="sensor.netatmo_airq_co2" class="sensor-text" transform="matrix(.89906 .55932 -.7614 .6386 -20.204 6.6386)" x="1259.4749" y="274.95776" font-size="34px" stroke-width=".5">000 ppm</text>
  </g>
  <g id="area.kitchen">
   <path id="path_kitchen" d="m702.82 783.65s-199.1-6.5681-238.35-154.72c-1.2662-1.2662-49.439-32.289-49.439-32.289l7.2253-3.4166-11.317-51.499 241.91-138.16-1.7527-15.659 29.98-17.132 15.398 7.5447 2.7526 20.294 24.27 8.2578 3.569 42.318 19.885 9.1775-1.0197-33.651 97.893-57.104 40.279 25.493 6.6282 142.76-25.493 19.375-1.0197-18.355-50.986-28.552-84.637 57.104 16.248 187.46z" fill="none" stroke="#000" stroke-width="1px"/>
   <use id="group.kitchen" xlink:href="#path_kitchen"/>
  </g>
  <g id="area.bathroom">
   <path id="path_bathroom" d="m308.05 527.41 106.56 69.038-3.1608-55.988 147.35-84.637-60.673-32.121-68.831 34.161-2.5493-17.335-9.1775-4.5888-24.983 13.766-17.845-5.6085-10.707-69.341-16.316-7.6479-52.516 23.963 27.023 126.96z" fill="none" stroke="#000" stroke-width="1px"/>
  </g>
  <g id="area.office">
   <path id="path_office" d="m308.06 528.43-139.8-89.433-49.557-197.63 309.29-118.7 144.8 60.88-13.668 9.5887 24.064 206.08-63.122 31.608-5.4052-13.049-83.106 43.235-5.8134-21.519-6.7269-2.0364-29.883 17.643-16.314-11.017-9.7888-70.362-14.784-5.912-52.414 23.758 26.919 124.41z" fill="none" stroke="#000" stroke-width="1px"/>
   <text id="sensor.office_sensor_temperature" class="sensor-text" transform="matrix(.739 .38 .29 1.287 29.617 -5.2328)" x="585.29944" y="54.345657" font-size="34px" stroke-width=".32634">00.00°C</text>
   <text id="sensor.office_sensor_humidity" class="sensor-text" transform="matrix(.739 .38 .29 1.287 26.721 5.4467)" x="589.50372" y="75.112877" font-size="34px" stroke-width=".32634">00.00%</text>
   <use id="switch.office" xlink:href="#path_office"/>
  </g>
  <g id="area.hallway">
   <path id="path_hallway" d="m560.34 192.73 118.8-52.516 400.75 152.96-18.355 10.197-3.0592 223.32-43.848 37.73 3.0592-137.15-53.535-25.493-76.479 53.026-3.0592-62.713-41.809-26.513-95.854 60.164 1.5296 31.611-21.924-8.1578-3.569-42.828-24.473-11.217-1.5296-18.355-16.316-9.1775-30.082 18.355v17.335l-91.775 50.986-61.693-32.121 17.845-9.6874 3.569 13.766 63.223-31.611z" fill="none" stroke="#000" stroke-width="1px"/>
   <use id="group.hallway" xlink:href="#path_hallway"/>
  </g>
 </g>
 <g id="entites">
  <path id="media_player.mio_tv" d="m1357.3 230.69-78.4 56.07-3.6705 62.38 76.29-58.36z" fill="url(#tvGlow)" filter="url(#tvGlowFilter)" stroke="#aaa" stroke-width="1px"/>
 </g>
</svg>
