<?xml version="1.0" encoding="UTF-8"?>
<svg width="600" height="121" version="1.1" viewBox="0 0 600 121" xmlns="http://www.w3.org/2000/svg">
  <style>.st0{fill:#7a7a7e}</style>
  <path d="m580 70.5v-22.6h-7.66v-7.29h7.66v-13h8.05v13h10.4v7.29h-10.4v21.9c0 4.98 1.92 6.9 5.75 6.9 1.54 0 2.68 0 3.83-0.765l2.68 6.9c-1.92 0.765-3.83 1.15-6.52 1.15-8.81 0.38-13.8-4.6-13.8-13.4zm-46 2.3 7.29-3.07c2.3 5.37 6.52 8.05 11.5 8.05 4.98 0 8.44-2.3 8.44-6.13 0-2.3-1.15-4.6-5.75-5.75l-8.82-1.92c-3.83-1.15-11.5-4.22-11.5-11.9 0-7.66 8.05-12.7 16.9-12.7 7.29 0 13.8 3.45 16.5 9.97l-6.9 3.07c-1.53-4.22-5.75-5.75-9.97-5.75-4.6 0-8.44 1.92-8.44 5.37 0 2.68 2.3 4.22 5.75 4.98l8.44 1.92c8.44 1.92 11.9 7.29 11.9 12.7 0 7.66-6.9 13.4-16.9 13.4-9.97 0-16.1-6.14-18.4-12.3zm-13-7.67s-3.45-2.68-10.4-2.68c-8.44 0-11.9 4.6-11.9 8.44 0 4.6 4.6 6.9 8.82 6.9 6.9 0 13.4-5.37 13.4-12.7zm-30.3 5.75c0-9.59 8.82-15 18.8-15 5.75 0 9.97 1.53 11.5 2.68v-1.54c0-6.52-5.37-10.4-11.1-10.4-4.6 0-8.82 2.3-10.4 6.13l-7.29-3.07c1.53-3.83 6.52-10.4 17.6-10.4 10.4 0 19.2 6.13 19.2 18.4v26.1h-7.66v-6.13h-0.386c-2.3 3.45-6.9 7.29-14.2 7.29-8.82 0.01-16.1-5.36-16.1-14.2zm-46-8.82c0-13 9.2-23 22.2-23 10.4 0 16.1 6.13 18.8 12.3l-7.29 3.07c-1.92-4.98-6.13-8.05-11.9-8.05-6.9 0-13.4 6.13-13.4 15.7 0 9.2 6.52 15.7 13.4 15.7 6.13 0 10.4-3.07 12.7-8.05l7.29 3.07c-2.68 6.13-8.82 12.3-19.2 12.3-13.4-0.01-22.6-9.98-22.6-23zm-25.7-15.3c-6.13 0-10.7 4.22-12.3 10.4h24.9c-0.386-3.83-3.45-10.4-12.7-10.4zm-21.1 15.3c0-12.3 8.44-23 21.1-23 12.7 0 21.1 9.2 21.1 23v1.53h-34.1c0.386 9.2 6.9 14.2 13.8 14.2 4.6 0 9.59-1.92 11.9-7.29l7.29 3.07c-2.68 6.13-8.82 11.9-18.8 11.9-13.4-0.374-22.2-10.3-22.2-23.4zm-71.3-21.5h7.66v6.13h0.386c2.3-4.22 8.05-7.29 13.4-7.29 6.9 0 11.5 3.07 13.8 8.44 3.07-4.98 8.44-8.44 15-8.44 10.4 0 15.3 7.29 15.3 18v26.5h-8.44v-25.3c0-8.82-3.45-11.9-9.59-11.9-6.52 0-11.1 6.52-11.1 13.4v23.8h-8.05v-25.3c0-8.82-3.45-11.9-9.59-11.9-6.52 0-11.1 6.52-11.1 13.4v23.8h-8.05v-43.3h0.392zm-14.6 21.5c0-9.97-6.9-15.7-14.2-15.7-7.29 0-14.2 5.75-14.2 15.7 0 9.97 6.9 15.7 14.2 15.7 7.29 0 14.2-5.75 14.2-15.7zm8.05 0c0 13-9.2 23-22.2 23-13 0-22.2-9.97-22.2-23 0-13 9.2-23 22.2-23 13 0 22.2 9.97 22.2 23zm-71.3 21.9v-43.3h7.66v6.9h0.386c1.92-4.98 8.05-8.05 12.7-8.05 2.68 0 4.22 0.386 6.13 1.15l-3.07 7.66c-1.15-0.386-2.68-0.765-4.22-0.765-5.37 0-11.1 4.6-11.1 12.7v23.8zm-38.7-43.3-0.386 6.13h0.386c2.3-3.83 7.66-7.29 13.8-7.29 11.1 0 16.5 7.29 16.5 18v26.5h-8.05v-25.3c0-8.82-4.6-11.9-10.7-11.9-6.9 0-11.5 6.52-11.5 13.4v23.8h-8.05v-62.9h8.05zm-55.6 21.5c0-13 9.2-23 22.2-23 10.4 0 16.1 6.13 18.8 12.3l-7.29 3.45c-1.92-4.98-6.13-8.05-11.9-8.05-6.9 0-13.4 6.13-13.4 15.7 0 9.2 6.52 15.7 13.4 15.7 6.13 0 10.4-3.07 12.7-8.05l7.29 3.07c-2.68 6.13-8.82 12.3-19.2 12.3-13.4-0.392-22.6-10.4-22.6-23.4z" fill="#7a7a7e" stroke-width=".0603"/>
  <path d="m82.4 60.6c0 12.3-9.97 21.9-21.9 21.9-12.3 0-21.9-9.97-21.9-21.9 0-11.9 9.97-21.9 21.9-21.9 11.9-0.386 21.8 9.59 21.8 21.9zm-21.8-60.6c-19.9 0-37.6 9.59-48.7 24.5l20.7 35.3c0.386 0.386 0.386 1.15 0.386 1.53v-1.15c0-13.4 9.97-24.9 22.6-26.8h0.386c2.3-0.765 4.6-0.765 6.9-0.765h51c-9.98-19.2-30.3-32.6-53.3-32.6zm0 87.8c-7.66 0-15-3.45-19.9-8.44-1.92-1.92-3.45-3.83-4.98-6.13l-0.765-0.765-25.7-44.1c-5.75 9.2-9.2 20.3-9.2 32.2 0 31.1 23 56.4 52.9 59.8l20.7-36c-3.83 2.3-8.44 3.45-13 3.45zm55.6-50.6h-41.4c7.66 4.98 13 13.4 13 23.4 0 1.92-0.386 4.22-0.765 6.13v0.386c-0.386 3.07-1.53 5.75-3.07 8.44l-26.1 45.6h2.3c33.4 0 60.6-26.8 60.6-60.6-0.01-8.44-1.54-16.5-4.61-23.4z" fill="#7a7a7e" stroke-width=".0603"/>
</svg>
